<?xml version="1.0" encoding="utf-8"?>
<!-- Generator: Adobe Illustrator 25.4.1, SVG Export Plug-In . SVG Version: 6.00 Build 0)  -->
<svg version="1.1" id="Layer_1" xmlns="http://www.w3.org/2000/svg" xmlns:xlink="http://www.w3.org/1999/xlink" x="0px" y="0px"
	 viewBox="0 0 348 104" style="enable-background:new 0 0 348 104;" xml:space="preserve">
<style type="text/css">
	.st0{fill:#243B75;}
	.st1{fill:#E95F25;}
	.st2{fill:#253C6D;}
	.st3{fill:#223D75;}
	.st4{fill:none;stroke:#000000;stroke-miterlimit:10;}
	.st5{fill:#9E801B;}
</style>
<g>
	<g>
		<g>
			<g>
				<path class="st0" d="M69.8,87.7c5-6.2,9.9-12.5,14.7-18.7c3.3-4.2,6.8-8.4,10.2-12.7c0.6-0.7,1.1-1.2,1.9-2.1
					c1.8,2.4,3.3,4.5,4.9,6.8c6.4,8.9,12.9,17.8,19.3,26.8C103.8,87.7,86.8,87.7,69.8,87.7z"/>
			</g>
		</g>
		<g>
			<g>
				<path class="st0" d="M17.3,87.7c8.6-10.8,17.3-21.5,25.8-32.4c0.2-0.3,0.6-0.6,1.1-1.1c1,1.3,1.9,2.4,2.8,3.7
					c7,9.6,14,19.4,20.9,29c0.1,0.2,0.2,0.4,0.3,0.7C51.2,87.7,34.2,87.7,17.3,87.7z"/>
			</g>
		</g>
		<g>
			<g>
				<path class="st1" d="M16.3,18.4c5.2,7.3,10.5,14.5,15.7,21.8c3.1,4.3,3,4.4,0.1,8.9c-4.4,6.6-9.1,13.2-13.5,19.7
					c-0.8,1.2-1.6,2.4-2.2,3.7C16.3,54.4,16.3,36.4,16.3,18.4z"/>
			</g>
		</g>
		<g>
			<g>
				<path class="st1" d="M69.6,72.8c-5-6.5-9.9-12.7-14.6-19.1c-1.9-2.4-3.7-5-5.5-7.2c-1-1.2-0.9-2.1-0.1-3.3
					c6.4-8.9,12.7-17.8,19.3-26.9c2.7,3.5,5.2,7,7.9,10.4c4,5.4,8,10.8,12.1,16.1c0.9,1.1,1,2,0.2,3.2c-6,8.5-12.1,17.2-18.1,25.8
					C70.5,72.1,70.2,72.3,69.6,72.8z"/>
			</g>
		</g>
		<g>
			<g>
				<path class="st1" d="M120.9,72.4c-4.7-6.6-8.9-12.7-13-18.7c-1.8-2.5-3.5-5-5.2-7.5c-0.4-0.7-0.6-2.1-0.1-2.7
					c5.8-8.2,11.7-16.4,17.6-24.6c0.1-0.1,0.3-0.1,0.7-0.3C120.9,36.3,120.9,53.9,120.9,72.4z"/>
			</g>
		</g>
	</g>
	<g>
		<g>
			<g>
				<g>
					<path class="st2" d="M159.1,53.6l4.6,1.1c-1,3.6-2.7,6.3-5.2,8.2s-5.6,2.8-9.2,2.8c-3.7,0-6.8-0.7-9.1-2.2
						c-2.3-1.4-4.1-3.5-5.4-6.3c-1.2-2.7-1.8-5.7-1.8-8.8c0-3.4,0.7-6.4,2.1-9s3.3-4.5,5.9-5.8c2.6-1.3,5.4-2,8.4-2
						c3.5,0,6.4,0.8,8.8,2.5c2.4,1.7,4,4,5,7.1l-4.5,1c-0.8-2.4-2-4.1-3.5-5.2c-1.5-1.1-3.5-1.6-5.8-1.6c-2.7,0-4.9,0.6-6.7,1.8
						c-1.8,1.2-3.1,2.8-3.8,4.9s-1.1,4.2-1.1,6.3c0,2.8,0.4,5.2,1.3,7.3c0.9,2.1,2.2,3.7,4,4.7s3.8,1.6,5.9,1.6
						c2.6,0,4.8-0.7,6.5-2.1C157.2,58.4,158.4,56.4,159.1,53.6z"/>
				</g>
			</g>
			<g>
				<g>
					<path class="st2" d="M207.6,49.1c0-5.5,1.6-9.7,4.6-12.8c3.1-3.1,7.1-4.6,12-4.6c3.2,0,6.1,0.7,8.7,2.2
						c2.6,1.4,4.5,3.5,5.9,6.1s2,5.5,2,8.8s-0.7,6.3-2.1,9c-1.4,2.6-3.4,4.6-6,6s-5.4,2-8.4,2c-3.3,0-6.2-0.7-8.8-2.2
						c-2.6-1.5-4.5-3.5-5.9-6.1C208.3,54.7,207.6,52,207.6,49.1z M212.4,49.2c0,4,1.1,7.1,3.4,9.4c2.3,2.3,5.1,3.4,8.5,3.4
						c3.5,0,6.3-1.2,8.5-3.5s3.3-5.6,3.3-9.8c0-2.7-0.5-5-1.4-7c-1-2-2.4-3.5-4.2-4.6c-1.8-1.1-3.9-1.6-6.2-1.6
						c-3.3,0-6.1,1.1-8.4,3.2C213.5,40.8,212.4,44.2,212.4,49.2z"/>
				</g>
			</g>
			<g>
				<g>
					<path class="st2" d="M304.4,65.1V32.2h4.7L327.3,58V32.2h4.4v32.9H327l-18.2-25.8v25.8H304.4z"/>
				</g>
			</g>
			<g>
				<g>
					<g>
						<g>
							<path class="st2" d="M173.1,66.1V33.1h12.7c2.6,0,4.5,0.3,5.8,0.9c1.3,0.6,2.4,1.6,3.2,3.1s1.2,3.1,1.2,5
								c0,2.3-0.7,4.3-2,5.9c-1.3,1.6-3.4,2.6-6.1,3.1c1,0.5,1.8,1.1,2.3,1.6c1.1,1.2,2.2,2.6,3.1,4.4l5,9h-4.8l-3.8-6.8
								c-1.1-2-2-3.5-2.7-4.5s-1.4-1.8-1.9-2.2c-0.6-0.4-1.1-0.7-1.7-0.9c-0.4-0.1-1.1-0.2-2.1-0.2h-4.4v14.6L173.1,66.1L173.1,66.1
								z M176.9,47.8h8.2c1.7,0,3.1-0.2,4.1-0.6s1.7-1.1,2.2-2s0.8-1.9,0.8-3c0-1.6-0.5-2.8-1.5-3.8s-2.5-1.5-4.7-1.5h-9.1V47.8z"/>
						</g>
					</g>
				</g>
				<g>
					<g>
						<polygon class="st2" points="193.4,57.1 189.6,50.7 186.3,51.3 						"/>
					</g>
				</g>
			</g>
			<g>
				<g>
					<polygon class="st3" points="247.5,32.1 253.4,32.1 261.5,52.8 270.7,32.1 281.7,53.7 288.9,32.1 294.3,32.1 282.5,65.3 
						270.9,43.2 260.6,65.3 					"/>
				</g>
			</g>
		</g>
		<line class="st4" x1="134" y1="73.8" x2="330.7" y2="73.8"/>
		<g>
			<path d="M172.8,96.4V79.8h6.8c1.8,0,3.3,0.4,4.7,1.1c1.3,0.7,2.4,1.7,3.1,2.9c0.7,1.2,1.1,2.7,1.1,4.3s-0.4,3.1-1.1,4.3
				c-0.7,1.2-1.8,2.2-3.1,2.9c-1.3,0.7-2.9,1.1-4.7,1.1H172.8z M174.6,94.9h4.9c1.5,0,2.8-0.3,3.8-0.9c1-0.6,1.9-1.4,2.5-2.4
				s0.9-2.2,0.9-3.5s-0.3-2.5-0.9-3.5c-0.6-1-1.4-1.8-2.5-2.4c-1.1-0.6-2.4-0.9-3.8-0.9h-4.9V94.9z"/>
			<path d="M199.7,96.6c-1.3,0-2.4-0.2-3.5-0.6c-1.1-0.4-2-1-2.8-1.8s-1.4-1.7-1.8-2.7c-0.4-1-0.7-2.1-0.7-3.4
				c0-1.2,0.2-2.3,0.7-3.4c0.4-1,1-1.9,1.8-2.7c0.8-0.8,1.7-1.4,2.8-1.8c1.1-0.4,2.2-0.6,3.5-0.6s2.4,0.2,3.5,0.6
				c1.1,0.4,2,1,2.8,1.8s1.4,1.7,1.8,2.7s0.7,2.2,0.7,3.4s-0.2,2.3-0.7,3.4c-0.5,1.1-1,1.9-1.8,2.7s-1.7,1.4-2.8,1.8
				C202.1,96.4,200.9,96.6,199.7,96.6z M199.7,95.1c1,0,1.9-0.2,2.8-0.5c0.8-0.3,1.6-0.8,2.2-1.4c0.6-0.6,1.1-1.4,1.5-2.2
				c0.3-0.8,0.5-1.7,0.5-2.7s-0.2-1.9-0.5-2.7s-0.8-1.6-1.5-2.2c-0.6-0.6-1.4-1.1-2.2-1.4s-1.8-0.5-2.8-0.5s-1.9,0.2-2.8,0.5
				c-0.9,0.3-1.6,0.8-2.2,1.4c-0.6,0.6-1.1,1.4-1.5,2.2c-0.4,0.8-0.5,1.7-0.5,2.7s0.2,1.9,0.5,2.7c0.3,0.8,0.8,1.6,1.5,2.2
				c0.6,0.6,1.4,1.1,2.2,1.4C197.8,94.9,198.7,95.1,199.7,95.1z"/>
			<path d="M212.3,96.4V79.8h1.4l7.6,13h-0.8l7.5-13h1.4v16.6h-1.7v-14h0.4l-6.7,11.9h-0.8l-7-11.9h0.5v14
				C214.1,96.4,212.3,96.4,212.3,96.4z"/>
			<path d="M235,96.4V79.8h7.2c1.9,0,3.3,0.4,4.3,1.1s1.5,1.8,1.5,3.2c0,0.9-0.2,1.7-0.6,2.3c-0.4,0.6-1,1.1-1.7,1.4
				s-1.5,0.5-2.4,0.5l0.4-0.6c1.1,0,2,0.2,2.7,0.5c0.8,0.3,1.4,0.8,1.8,1.4c0.4,0.6,0.6,1.4,0.6,2.4c0,1.4-0.5,2.5-1.6,3.3
				c-1,0.8-2.6,1.2-4.7,1.2H235V96.4z M236.8,95.1h5.9c1.5,0,2.6-0.2,3.3-0.7c0.8-0.5,1.2-1.3,1.2-2.4c0-1.1-0.4-1.9-1.2-2.4
				s-1.9-0.7-3.3-0.7h-6.1v-1.4h5.5c1.3,0,2.4-0.3,3.1-0.8s1.1-1.3,1.1-2.3s-0.4-1.8-1.1-2.3c-0.7-0.5-1.8-0.7-3.1-0.7h-5.3
				L236.8,95.1L236.8,95.1z"/>
			<path d="M252.9,96.4V79.8h1.8v16.6C254.7,96.4,252.9,96.4,252.9,96.4z"/>
			<path d="M264.7,96.4l-7.4-16.6h1.9l6.9,15.7h-1l6.9-15.7h1.8l-7.4,16.6H264.7z"/>
			<path d="M276.1,96.4V79.8h1.8v15.1h9.3v1.5C287.2,96.4,276.1,96.4,276.1,96.4z"/>
			<path d="M290.1,96.4V79.8h1.8v16.6C291.9,96.4,290.1,96.4,290.1,96.4z"/>
		</g>
		<g>
			<g>
				<path class="st5" d="M186.9,24.8V7.6h3.2V22h8.9v2.7H186.9z"/>
				<path class="st5" d="M209.3,25c-1.3,0-2.5-0.3-3.6-0.7s-2.1-1-2.9-1.8c-0.9-0.8-1.5-1.7-1.9-2.8c-0.4-1-0.7-2.3-0.7-3.5
					c0-1.3,0.3-2.4,0.7-3.5c0.4-1,1.1-2,1.9-2.8c0.9-0.8,1.8-1.4,2.9-1.8c1.1-0.4,2.3-0.7,3.7-0.7c1.3,0,2.5,0.2,3.6,0.6
					s2.1,1,2.9,1.8c0.8,0.8,1.5,1.7,1.9,2.8c0.4,1,0.7,2.3,0.7,3.6c0,1.3-0.3,2.4-0.7,3.5c-0.4,1-1.1,2-1.9,2.8
					c-0.8,0.8-1.8,1.4-2.9,1.8C211.8,24.8,210.6,25,209.3,25z M209.3,22.2c0.9,0,1.6-0.2,2.4-0.4c0.7-0.3,1.4-0.7,1.9-1.2
					s1-1.2,1.3-1.9s0.4-1.6,0.4-2.4c0-0.9-0.2-1.6-0.4-2.4c-0.3-0.7-0.7-1.4-1.3-1.9c-0.5-0.5-1.2-1-1.9-1.2
					c-0.7-0.3-1.6-0.4-2.4-0.4s-1.6,0.2-2.4,0.4c-0.8,0.3-1.4,0.7-1.9,1.3c-0.5,0.5-1,1.2-1.3,1.9c-0.3,0.7-0.4,1.6-0.4,2.4
					s0.2,1.6,0.4,2.4c0.3,0.7,0.7,1.4,1.3,1.9c0.5,0.5,1.2,1,1.9,1.3C207.5,22,208.4,22.2,209.3,22.2z"/>
				<path class="st5" d="M221.8,24.8V7.6h7.5c1.8,0,3.5,0.3,4.9,1s2.5,1.7,3.3,3s1.2,2.8,1.2,4.5c0,1.7-0.4,3.2-1.2,4.5
					c-0.8,1.3-1.9,2.3-3.3,3s-3,1-4.9,1L221.8,24.8L221.8,24.8z M225,22h4.2c1.3,0,2.4-0.3,3.4-0.7c1-0.5,1.6-1.2,2.2-2.1
					s0.8-1.9,0.8-3.1c0-1.2-0.3-2.3-0.8-3.1c-0.5-0.9-1.3-1.6-2.2-2c-1-0.5-2.1-0.7-3.4-0.7H225V22z"/>
				<path class="st5" d="M245.2,24.8H242V7.6h3.2V24.8z M254.3,17.5h-9.4v-2.7h9.4V17.5z M254,7.6h3.1v17.1H254V7.6z"/>
				<path class="st5" d="M259.4,24.8l7.7-17.1h3.1l7.7,17.1h-3.4L268,9.2h1.3l-6.6,15.4L259.4,24.8L259.4,24.8z M263,20.8l0.9-2.5
					h9.2l0.9,2.5H263z"/>
			</g>
		</g>
	</g>
</g>
</svg>
